Patient4_TMGait_0pt5_02_right_22_EMG.mot
version=1
nRows=19
nColumns=33
inDegrees=no
endheader
time	1LAddLong	2LGlutMax	3LGlutMed	4LIliopsoas	5LSemiMemb	6LBicFemLong	7LRecFem	8LVastMed	9LVastLat	10LGasMed	11LTibAnt	12lTibPost	13LPeroneusLong	14LSol	15LExtDigLong	16LFlexDigLong	17RAddLong	18RGlutMax	19RGlutMed	20RIliopsoas	21RSemiMemb	22RBicFemLong	23RRecFem	24RVastMed	25RVastLat	26RGasMed	27RTibAnt	28RTibPost	29RPeroneusLong	30RSol	31RExtDigLong	32RFlexDigLong
30.003	-0.002441	-0.12787	-0.05127	-0.007019	0.020294	-0.028687	0.10773	0.015564	0.011139	-0.040436	0.01358	-0.010986	0.13275	-0.12665	0.006104	-0.007172	-0.012207	-0.14069	0.061798	0.30701	-0.058899	0.11734	0.052032	-0.02655	0.027008	-0.020752	-0.042572	-0.004883	0.14313	-0.023041	-0.000916	-0.001373
30.004	0.00946	-0.12192	-0.029297	0.000916	0.002747	-0.000458	0.049744	0.020447	-0.018921	-0.039368	-0.001373	0.00061	0.19898	-0.067902	-0.009155	-0.00473	0.00946	-0.16968	0.12436	0.15335	-0.072479	0.045166	0.072937	-0.047607	0.025024	-0.02182	-0.074005	-0.002136	1.2599	-0.002136	0.001984	-0.012207
30.005	0.003662	-0.10819	0.085144	0.00351	0	0.010986	0.078278	0.016174	-0.027008	-0.060272	0	-0.010071	0.31082	-0.013275	-0.005798	0.00412	0.014343	-0.16312	0.10223	0.034943	-0.005341	0.00412	0.073547	-0.058746	0.019684	-0.021362	-0.00473	-0.001373	0.60226	-0.007019	0.000916	-0.010071
30.006	0.001068	-0.10483	0.10849	0.00061	-0.026093	0.000305	0.021667	0.012207	-0.046082	-0.045776	0.002594	0.012665	0.27359	0.016022	0.005188	0.012512	0.014496	-0.16602	0.040588	-0.027924	-0.010071	0.012817	0.053406	-0.068512	0.041656	-0.022125	-0.041656	-0.001526	-0.23727	-0.009766	0.001831	-0.015564
30.007	0.003052	-0.10742	0.067749	-0.002136	-0.062561	0.009766	-0.024872	-0.005951	-0.024109	-0.067902	-0.003204	0.026855	0.05661	0.011139	0.052643	0.011139	0.009766	-0.17578	0.003357	-0.048676	-0.01709	-0.030823	0.039215	-0.084991	0.0354	-0.024567	-0.009155	-0.001984	-0.22659	-0.017548	-0.001984	-0.011749
30.008	0.003662	-0.087585	0.046844	-0.007172	-0.077515	-0.026398	-0.092621	-0.019836	0.012054	-0.05127	0.01358	0.020905	-0.23666	-0.006104	0.06073	0.007629	0.013733	-0.15366	0.04364	-0.093079	-0.021362	-0.064087	0.053558	-0.084076	0.031433	-0.029144	0.014038	-0.002289	0.074005	-0.019989	0.001221	-0.010376
30.009	0.012512	-0.089569	0.013428	0.00473	0.007629	-0.039978	-0.050812	-0.025787	0.055847	-0.050964	0.018005	-0.023193	0.010529	-0.007324	0.040894	0.017853	0.006561	-0.13718	0.089722	-0.11398	-0.014648	-0.088806	0.080719	-0.10391	0.035095	-0.037079	-0.014648	-0.003815	0.16861	-0.007172	0.000305	-0.011139
30.01	0.010376	-0.065765	0.052032	0.007935	0.03479	-0.028381	-0.005188	-0.029144	0.058136	-0.035095	-0.00351	-0.015717	0.10178	-0.015106	0.023499	0.006256	0.009308	-0.12589	0.088501	-0.11383	-0.010223	-0.10498	0.062408	-0.10834	0.032196	-0.042725	-0.03479	-0.007935	0.14053	0.004272	-0.002441	-0.003204
30.011	0.016022	-0.096283	0.045624	-0.003815	0.032959	-0.019836	0.063934	-0.029602	0.064545	-0.014648	-0.010223	-0.000305	0.1712	-0.070343	-0.0383	0.007782	-0.013733	-0.17639	0.14252	-0.092926	-0.01297	-0.11124	0.021667	-0.10056	0.051422	-0.049133	0.12238	-0.007324	0.049286	0.033417	0	-0.010376
30.012	0.017242	-0.09964	0.027008	-0.000916	0.071564	0.000153	0.11841	-0.026398	0.043945	-0.020752	0.007782	0.001984	-0.065155	-0.046082	-0.072937	0.000763	-0.002747	-0.20813	0.11795	-0.019379	-0.011597	-0.1178	0.05249	-0.10986	0.03952	-0.067139	0.27298	0	-0.022736	0.046692	-0.005798	-0.004425
30.013	-0.015411	-0.066376	0.02594	-0.004883	0.059357	0.002441	0.11322	-0.018463	0.037384	-0.073853	0	0.002899	-0.09964	0.041809	-0.044098	0.008545	0.006409	-0.20065	0.080414	0.033875	-0.017853	-0.12177	0.082092	-0.10269	0.031738	-0.08194	0.4863	-0.010223	0.023193	0.023651	-0.001831	-0.007477
30.014	0.04303	-0.036621	0.041199	0.005035	0.041351	-0.005341	0.096436	-0.010986	0.029602	-0.11932	-0.014801	-0.001068	0.027008	0.055237	-0.016022	0.014801	-0.000153	-0.15549	0.000458	0.069427	-0.022583	-0.10834	0.060272	-0.1387	0.028076	-0.095825	0.23468	-0.001526	0.076447	-0.016785	-0.000916	-0.011902
30.015	0.001984	-0.039825	0.065155	0.007019	-0.003662	-0.002289	0.057831	-0.004272	0.016785	-0.1709	-0.006104	-0.002289	0.05188	-0.073242	-0.016632	0.019379	0.008087	-0.13748	0.008545	0.010681	-0.001068	-0.057526	0.058441	-0.089264	0.018463	-0.112	-0.015564	-0.005951	0.13062	-0.013733	-0.003052	-0.00946
30.016	-0.002136	-0.065765	0.1619	0.001831	-0.027313	-0.003357	0.089111	-0.004883	-0.006104	-0.12344	0.003967	0.003815	-0.071716	-0.086365	-0.008392	0.009308	0.022583	-0.12878	0.011749	-0.074615	0.03067	0.20935	0.056305	-0.079041	0.035095	-0.12222	-0.037231	-0.002747	0.04364	-0.000763	-0.000458	-0.005798
30.017	0.002899	-0.062561	0.09552	0.020905	-0.02533	0.016479	0.061493	-0.006104	-0.012207	-0.045166	0.00061	-0.002136	-0.13672	-0.061646	0.003662	-0.005188	0.019379	-0.14771	0.070038	-0.12573	0.034027	0.21637	0.03891	-0.12726	0.021667	-0.1236	-0.2504	-0.003357	-0.035706	-0.018616	-0.002441	-0.013275
30.018	0.010071	-0.036926	0.034332	0.021515	0.005341	0.003357	0.000153	-0.00824	0.007782	0.063019	0.00061	0.001221	-0.022583	-0.13138	0.008087	-0.005646	0.033264	-0.14679	0.063324	-0.036316	0.001984	0.10422	0.040131	-0.12528	0.031891	-0.083618	-0.14267	-0.003967	-0.098267	0.007477	0.001221	-0.014954
30.019	0.007477	-0.008392	0.00946	0.006409	0.039215	-0.022278	-0.014496	-0.012207	0.056305	0.12009	0.009003	0.027008	0.019684	-0.23651	-0.011444	0.003357	0.020142	-0.11215	0.055695	-0.002136	-0.14389	0.12329	0.016937	-0.084839	0.0383	-0.00061	-0.14374	-0.007019	-0.085754	-0.027161	-0.004578	-0.015564
30.02	0.002441	0.015411	-0.033112	0	0.038452	-0.036163	0.038147	-0.002747	0.067749	0.067749	-0.006561	0.084229	0.11444	0.052032	-0.030212	0.003204	0.011444	-0.14847	0.092316	-0.066986	-0.29617	0.14435	0.053558	-0.059204	0.010986	0.088806	-0.20248	-0.006561	-0.091248	-0.071716	0.000763	-0.014648
30.021	-0.005341	-0.00061	-0.017853	0.014038	0.010529	-0.032043	0.09491	-0.001984	0.05188	0.005188	-0.003662	0.001526	0.10895	0.23956	0.030212	0.006409	-0.004272	-0.1648	0.19913	-0.075073	-0.18158	0.11292	0.034027	-0.091705	0.022888	0.15472	-0.000153	-0.003662	-0.077515	-0.054474	-0.001984	-0.013733
